<?xml version="1.0" encoding="UTF-8"?>
<svg width="200" height="200" viewBox="0 0 200 200" fill="none" xmlns="http://www.w3.org/2000/svg">
  <circle cx="100" cy="100" r="100" fill="#8B5CF6"/>
  <path d="M100 60C83.4315 60 70 73.4315 70 90C70 98.2843 73.3714 105.754 78.8579 111.071C73.7143 116.607 70 123.857 70 132H80C80 121.954 88.9543 114 100 114C111.046 114 120 121.954 120 132H130C130 123.857 126.286 116.607 121.142 111.071C126.629 105.754 130 98.2843 130 90C130 73.4315 116.569 60 100 60ZM100 70C111.046 70 120 78.9543 120 90C120 101.046 111.046 110 100 110C88.9543 110 80 101.046 80 90C80 78.9543 88.9543 70 100 70Z" fill="white"/>
</svg> 