<?xml version="1.0" encoding="UTF-8"?>
<svg width="200" height="200" viewBox="0 0 200 200" fill="none" xmlns="http://www.w3.org/2000/svg">
  <rect width="200" height="200" rx="100" fill="#4B5563"/>
  <path d="M130 85H125V75C125 63.9543 116.046 55 105 55C93.9543 55 85 63.9543 85 75V85H80C75.5817 85 72 88.5817 72 93V137C72 141.418 75.5817 145 80 145H130C134.418 145 138 141.418 138 137V93C138 88.5817 134.418 85 130 85ZM95 75C95 69.4772 99.4772 65 105 65C110.523 65 115 69.4772 115 75V85H95V75ZM105 125C100.582 125 97 121.418 97 117C97 112.582 100.582 109 105 109C109.418 109 113 112.582 113 117C113 121.418 109.418 125 105 125Z" fill="white"/>
</svg> 